<svg width="29" height="25" viewBox="0 0 29 25" fill="none" xmlns="http://www.w3.org/2000/svg">
<g id="theDonki_Final _logo_KJ-05" clip-path="url(#clip0_8452_406)">
<path id="Vector" d="M0.212354 9.68121C0.440643 9.47909 1.87218 8.16679 1.87218 8.16679C1.87218 8.16679 1.89035 6.64947 2.89003 5.90644L3.37714 5.51747C3.37714 5.51747 3.23464 3.38144 3.64324 1.89029C4.05183 0.399143 4.64291 0 4.64291 0C4.64291 0 5.04932 0.991677 5.16201 1.91356C5.77418 0.934968 6.66552 0.207205 6.66552 0.207205C6.94761 1.68527 6.27147 4.03941 5.99447 4.95329C6.05409 4.75627 7.17517 5.026 7.32567 5.07762C8.17051 5.35031 8.90814 5.88192 9.43407 6.59712C9.90374 7.24418 10.3901 7.8847 11.1295 8.23877C12.4731 8.88147 14.1104 8.97089 15.5768 8.89746C17.7506 8.78913 19.8154 8.67499 21.9456 8.29111C24.1994 7.8847 26.9389 8.44888 27.9037 10.7456C28.0158 11.0165 28.0904 11.3015 28.1254 11.5926C28.2192 12.3502 28.0564 14.681 28.0913 15.2154C28.1073 15.4539 28.0913 15.3906 28.3821 15.9003C28.6729 16.4099 28.5093 18.5619 28.5093 18.5619C28.5144 18.4972 28.3566 18.3133 28.3196 18.25C28.2473 18.1284 28.1778 18.0053 28.1109 17.8807C27.978 17.6359 27.8643 17.3811 27.7706 17.1188C27.6781 16.8607 27.6185 16.592 27.5932 16.319C27.5812 16.1795 27.5812 16.0391 27.5932 15.8995C27.6049 15.7629 27.6456 15.6334 27.6281 15.4953C27.618 15.411 27.6121 15.331 27.6042 15.2496C27.5082 14.2143 27.6172 13.3644 27.5656 12.2913C27.5991 12.9885 27.5293 13.7228 27.2559 14.3793C26.9462 15.1253 26.3108 15.5309 25.8818 16.1809C25.3002 17.0613 25.6492 19.6903 26.438 20.9837C26.6071 21.2577 26.6682 21.5847 26.6096 21.9012L26.081 24.6938H23.9588L24.3892 22.5679C24.5287 21.8682 24.461 21.1431 24.1944 20.4813L23.0224 17.808C22.9561 17.6568 22.8577 17.5219 22.734 17.4125C22.6104 17.3032 22.4644 17.222 22.3062 17.1748H22.2968C20.5723 16.6309 19.2432 14.6898 19.1807 14.6069C19.393 15.6429 20.6908 16.7356 20.6908 16.7356C19.7148 17.2069 18.6531 17.4743 17.5703 17.5216C15.7942 17.5884 14.146 16.9014 14.146 16.9014C14.3139 15.9301 14.0682 14.2005 14.0682 14.2005C14.0915 16.1635 13.307 18.7917 13.307 18.7917V24.6974H11.1833C11.8544 21.5348 10.5421 16.09 10.5421 16.09C10.1059 15.973 9.25013 14.958 8.83354 13.8966C8.65033 13.4298 8.27809 12.8344 7.91821 12.3153C7.8615 12.2324 7.80406 12.1517 7.74881 12.0739C7.40928 11.6028 7.11192 11.2269 7.0414 11.1418C7.03122 11.1287 7.02613 11.1207 7.02613 11.1207C6.71278 10.6031 6.30928 10.1371 5.78581 9.8288L6.23366 8.83494L4.78541 10.2512C4.78457 10.2486 4.78457 10.2458 4.78541 10.2432C4.68336 10.3211 4.56288 10.3712 4.4357 10.3886C4.03438 10.4482 2.83623 10.883 2.83623 10.883L2.23206 11.6493C2.23206 11.6493 1.98123 11.8303 1.74276 11.8231C1.5043 11.8158 0.253795 11.6573 0.253795 11.6573L5.92811e-05 10.4221C5.92811e-05 10.4221 -0.0173896 9.88769 0.212354 9.68121Z" fill="#1F75FE"/>
<path id="Vector_2" d="M8.75492 15.3972C9.08572 15.8923 9.47396 16.3365 9.85856 16.604C10.1217 17.8102 10.9578 22.0146 10.4235 24.5331L10.3813 24.6938H8.62769C8.62769 24.6938 9.16424 23.5436 9.23113 20.6136C9.26893 18.9436 8.97666 16.7145 8.75492 15.3972Z" fill="#1F75FE"/>
<path id="Vector_3" d="M27.0988 20.5751C26.4008 19.4307 26.2045 17.2627 26.4939 16.6636C26.6641 16.4895 26.8191 16.301 26.957 16.1002C27.4979 18.3911 28.9062 20.7852 28.9062 20.7852C29.0038 21.033 29.026 21.3042 28.9702 21.5646L28.2962 24.6908H26.8727L27.3743 22.043C27.4676 21.5364 27.3694 21.0133 27.0988 20.5751Z" fill="#1F75FE"/>
</g>
<defs>
<clipPath id="clip0_8452_406">
<rect width="29" height="24.6938" fill="white"/>
</clipPath>
</defs>
</svg>
