<svg width="29" height="25" viewBox="0 0 29 25" fill="none" xmlns="http://www.w3.org/2000/svg">
<g id="theDonki_Final _logo_KJ-05" clip-path="url(#clip0_8485_1183)">
<path id="Vector" d="M0.21211 9.68121C0.440399 9.47909 1.87193 8.16679 1.87193 8.16679C1.87193 8.16679 1.89011 6.64947 2.88978 5.90644L3.3769 5.51747C3.3769 5.51747 3.2344 3.38144 3.64299 1.89029C4.05159 0.399143 4.64267 0 4.64267 0C4.64267 0 5.04908 0.991677 5.16177 1.91356C5.77393 0.934968 6.66528 0.207205 6.66528 0.207205C6.94737 1.68527 6.27122 4.03941 5.99422 4.95329C6.05384 4.75627 7.17493 5.026 7.32543 5.07762C8.17027 5.35031 8.9079 5.88192 9.43383 6.59712C9.9035 7.24418 10.3899 7.8847 11.1293 8.23877C12.4728 8.88147 14.1101 8.97089 15.5766 8.89746C17.7504 8.78913 19.8152 8.67499 21.9454 8.29111C24.1992 7.8847 26.9387 8.44888 27.9034 10.7456C28.0156 11.0165 28.0902 11.3015 28.1252 11.5926C28.219 12.3502 28.0561 14.681 28.091 15.2154C28.107 15.4539 28.091 15.3906 28.3818 15.9003C28.6726 16.4099 28.5091 18.5619 28.5091 18.5619C28.5142 18.4972 28.3564 18.3133 28.3193 18.25C28.2471 18.1284 28.1775 18.0053 28.1107 17.8807C27.9778 17.6359 27.864 17.3811 27.7704 17.1188C27.6779 16.8607 27.6183 16.592 27.593 16.319C27.581 16.1795 27.581 16.0391 27.593 15.8995C27.6046 15.7629 27.6453 15.6334 27.6279 15.4953C27.6177 15.411 27.6119 15.331 27.6039 15.2496C27.5079 14.2143 27.617 13.3644 27.5654 12.2913C27.5988 12.9885 27.529 13.7228 27.2557 14.3793C26.9459 15.1253 26.3105 15.5309 25.8816 16.1809C25.2999 17.0613 25.6489 19.6903 26.4377 20.9837C26.6068 21.2577 26.668 21.5847 26.6093 21.9012L26.0808 24.6938H23.9586L24.389 22.5679C24.5285 21.8682 24.4608 21.1431 24.1941 20.4813L23.0221 17.808C22.9558 17.6568 22.8575 17.5219 22.7338 17.4125C22.6101 17.3032 22.4642 17.222 22.306 17.1748H22.2965C20.572 16.6309 19.243 14.6898 19.1805 14.6069C19.3928 15.6429 20.6905 16.7356 20.6905 16.7356C19.7146 17.2069 18.6528 17.4743 17.5701 17.5216C15.7939 17.5884 14.1458 16.9014 14.1458 16.9014C14.3137 15.9301 14.068 14.2005 14.068 14.2005C14.0912 16.1635 13.3068 18.7917 13.3068 18.7917V24.6974H11.1831C11.8541 21.5348 10.5418 16.09 10.5418 16.09C10.1056 15.973 9.24989 14.958 8.8333 13.8966C8.65009 13.4298 8.27784 12.8344 7.91796 12.3153C7.86125 12.2324 7.80382 12.1517 7.74856 12.0739C7.40904 11.6028 7.11168 11.2269 7.04116 11.1418C7.03098 11.1287 7.02589 11.1207 7.02589 11.1207C6.71254 10.6031 6.30903 10.1371 5.78557 9.8288L6.23342 8.83494L4.78516 10.2512C4.78433 10.2486 4.78433 10.2458 4.78516 10.2432C4.68311 10.3211 4.56263 10.3712 4.43546 10.3886C4.03414 10.4482 2.83598 10.883 2.83598 10.883L2.23181 11.6493C2.23181 11.6493 1.98099 11.8303 1.74252 11.8231C1.50405 11.8158 0.253551 11.6573 0.253551 11.6573L-0.000184859 10.4221C-0.000184859 10.4221 -0.0176337 9.88769 0.21211 9.68121Z" fill="white"/>
<path id="Vector_2" d="M8.75467 15.3971C9.08547 15.8922 9.47371 16.3364 9.85831 16.604C10.1215 17.8101 10.9576 22.0146 10.4232 24.533L10.3811 24.6937H8.62744C8.62744 24.6937 9.16399 23.5435 9.23088 20.6136C9.26869 18.9436 8.97642 16.7145 8.75467 15.3971Z" fill="white"/>
<path id="Vector_3" d="M27.0985 20.5751C26.4006 19.4308 26.2043 17.2627 26.4936 16.6637C26.6639 16.4895 26.8188 16.301 26.9568 16.1002C27.4977 18.3911 28.9059 20.7852 28.9059 20.7852C29.0035 21.0331 29.0258 21.3042 28.9699 21.5646L28.296 24.6909H26.8724L27.3741 22.043C27.4674 21.5365 27.3692 21.0133 27.0985 20.5751Z" fill="white"/>
</g>
<defs>
<clipPath id="clip0_8485_1183">
<rect width="29" height="24.6938" fill="white"/>
</clipPath>
</defs>
</svg>
