<svg width="44" height="44" viewBox="0 0 44 44" fill="none" xmlns="http://www.w3.org/2000/svg">
<g id="Group 1171278665">
<g id="Group 1171278663">
<circle id="Ellipse 5" cx="22" cy="22" r="21.5" fill="#F6F7F9" stroke="#EDEDF1"/>
</g>
<g id="Group 1171278664">
<path id="Vector" d="M9.19381 19.6792C9.39686 19.4998 10.6813 18.3193 10.6813 18.3193C10.6813 18.3193 10.6978 16.9593 11.5903 16.2911L12.0271 15.9582C12.0271 15.9582 11.9019 14.0434 12.2632 12.707C12.6244 11.3707 13.1651 11 13.1651 11C13.3883 11.552 13.5467 12.128 13.6373 12.7165C14.0087 12.1455 14.4594 11.6304 14.976 11.1865C15.231 12.5111 14.6242 14.6219 14.3763 15.4364C14.4283 15.2593 15.4341 15.5025 15.5686 15.5474C16.326 15.7912 16.9871 16.268 17.4575 16.9097C17.8801 17.4882 18.3145 18.0643 18.978 18.3806C20.1821 18.9567 21.6507 19.037 22.9635 18.9709C24.8771 18.9148 26.785 18.7334 28.6748 18.4279C30.6959 18.0643 33.149 18.5695 34.0155 20.6284C34.116 20.8716 34.1827 21.1273 34.2139 21.3886C34.2965 22.0662 34.1525 24.1558 34.1832 24.6351C34.1973 24.8499 34.1832 24.7909 34.4405 25.2489C34.6979 25.707 34.5538 27.6336 34.5538 27.636C34.5538 27.5769 34.4169 27.3999 34.3839 27.355C34.3201 27.2464 34.2564 27.1354 34.1973 27.0245C34.0796 26.8066 33.9785 26.58 33.8951 26.3468C33.8123 26.1183 33.7584 25.8804 33.7346 25.6385C33.7251 25.5136 33.7251 25.3881 33.7346 25.2631C33.7585 25.1434 33.7696 25.0215 33.7676 24.8995C33.7676 24.8263 33.7535 24.7531 33.7464 24.6799C33.659 23.752 33.7464 22.9918 33.711 22.0285C33.7571 22.6655 33.6619 23.3048 33.4323 23.9008C33.1561 24.569 32.5895 24.9326 32.2022 25.5157C31.6757 26.3043 31.9921 28.6607 32.7004 29.8199C32.8529 30.0657 32.9085 30.3594 32.8563 30.6439L32.384 33.149H30.4787L30.8659 31.2436C30.9901 30.6158 30.9295 29.9654 30.6912 29.3713L29.6405 26.9631C29.5812 26.8275 29.493 26.7066 29.3821 26.6087C29.2711 26.5108 29.1402 26.4384 28.9983 26.3964C27.4542 25.9077 26.2595 24.1676 26.2052 24.0944C26.3964 25.0223 27.5581 26.0021 27.5581 26.0021C26.684 26.4255 25.7328 26.6665 24.7626 26.7104C23.7134 26.7234 22.6715 26.535 21.6932 26.1556C21.842 25.2844 21.6224 23.7331 21.6224 23.7331C21.6436 25.4898 20.94 27.8485 20.94 27.8485V33.1372H19.037C19.6391 30.3039 18.4586 25.4237 18.4586 25.4237C18.0643 25.3198 17.3017 24.4084 16.9263 23.4569C16.7031 22.9575 16.4285 22.4828 16.107 22.0403C16.055 21.9647 16.0054 21.8939 15.9535 21.8231C15.6513 21.4004 15.3845 21.0652 15.3207 20.9872L15.3066 20.9684C15.0372 20.4967 14.6552 20.0992 14.1945 19.8114L14.5959 18.919L13.302 20.1868C13.2103 20.2565 13.1021 20.3012 12.988 20.3167C12.5016 20.4378 12.0224 20.586 11.5525 20.7606L11.0095 21.45C10.8813 21.5418 10.73 21.5958 10.5727 21.6058C10.3602 21.6058 9.23631 21.4571 9.23631 21.4571L9.0002 20.3498C9.0002 20.3498 8.98604 19.861 9.19381 19.6792Z" fill="#1F75FE"/>
<path id="Vector_2" d="M16.8506 24.8027C17.1137 25.2162 17.4488 25.5792 17.8399 25.8746C18.076 26.956 18.8245 30.7242 18.3452 32.9814L18.3074 33.1277H16.7373C16.7373 33.1277 17.2095 32.096 17.278 29.4681C17.2646 27.9038 17.1216 26.3434 16.8506 24.8027Z" fill="#1F75FE"/>
<path id="Vector_3" d="M33.2955 29.4468C32.6698 28.4198 32.4928 26.4766 32.7525 25.9407C32.9047 25.784 33.0437 25.615 33.168 25.4354C33.6402 27.4895 34.9152 29.6334 34.9152 29.6334C35.0039 29.8586 35.0236 30.1052 34.9719 30.3417L34.3674 33.1466H33.0925L33.5411 30.7714C33.6275 30.3147 33.54 29.8422 33.2955 29.4468Z" fill="#1F75FE"/>
</g>
</g>
</svg>
